<svg xmlns="http://www.w3.org/2000/svg" width="1200" height="630" viewBox="0 0 1200 630" role="img" aria-label="Cadastro Horus SESAM">
  <defs>
    <linearGradient id="bg" x1="0" y1="0" x2="1" y2="1">
      <stop offset="0%" stop-color="#0b1020"/>
      <stop offset="45%" stop-color="#142235"/>
      <stop offset="100%" stop-color="#1b2f3f"/>
    </linearGradient>
    <linearGradient id="accent" x1="0" y1="0" x2="1" y2="1">
      <stop offset="0%" stop-color="#f97316"/>
      <stop offset="100%" stop-color="#fb923c"/>
    </linearGradient>
    <linearGradient id="panel" x1="0" y1="0" x2="1" y2="1">
      <stop offset="0%" stop-color="#102a40"/>
      <stop offset="100%" stop-color="#0e3a2e"/>
    </linearGradient>
  </defs>

  <rect width="1200" height="630" fill="url(#bg)"/>
  <circle cx="1040" cy="96" r="170" fill="#fb923c" opacity="0.14"/>
  <circle cx="150" cy="560" r="210" fill="#22c55e" opacity="0.12"/>
  <circle cx="980" cy="560" r="140" fill="#2dd4bf" opacity="0.12"/>

  <rect x="62" y="58" width="1076" height="514" rx="36" fill="#0d1d2d" fill-opacity="0.9" stroke="#60a5fa" stroke-opacity="0.2"/>

  <rect x="106" y="110" width="118" height="118" rx="26" fill="url(#accent)"/>
  <g transform="translate(136 140)" fill="none" stroke="#ffffff" stroke-width="4" stroke-linecap="round" stroke-linejoin="round">
    <path d="M33 47v-4a10 10 0 0 0-10-10h-8a10 10 0 0 0-10 10v4"/>
    <circle cx="19" cy="18" r="9"/>
    <line x1="46" y1="18" x2="46" y2="33"/>
    <line x1="38.5" y1="25.5" x2="53.5" y2="25.5"/>
  </g>

  <text x="256" y="162" fill="#f8fafc" font-family="Segoe UI, Arial, sans-serif" font-size="62" font-weight="800">
    Cadastro H&#243;rus | SESAM
  </text>
  <text x="256" y="213" fill="#cbd5e1" font-family="Segoe UI, Arial, sans-serif" font-size="30" font-weight="500">
    Portal oficial de cadastro e atualiza&#231;&#227;o profissional
  </text>

  <rect x="106" y="274" width="988" height="238" rx="28" fill="url(#panel)" stroke="#34d399" stroke-opacity="0.35"/>
  <text x="146" y="352" fill="#f8fafc" font-family="Segoe UI, Arial, sans-serif" font-size="45" font-weight="760">
    Agilidade para equipes da Secretaria Municipal de Sa&#250;de
  </text>
  <text x="146" y="406" fill="#d1fae5" font-family="Segoe UI, Arial, sans-serif" font-size="33" font-weight="520">
    Formul&#225;rio intuitivo, fluxo em etapas e envio com protocolo.
  </text>

  <rect x="146" y="447" width="220" height="46" rx="23" fill="#f97316" fill-opacity="0.15" stroke="#fb923c" stroke-opacity="0.55"/>
  <text x="186" y="478" fill="#fdba74" font-family="Segoe UI, Arial, sans-serif" font-size="24" font-weight="700">
    Cadastro r&#225;pido
  </text>

  <rect x="392" y="447" width="234" height="46" rx="23" fill="#22c55e" fill-opacity="0.14" stroke="#4ade80" stroke-opacity="0.55"/>
  <text x="432" y="478" fill="#86efac" font-family="Segoe UI, Arial, sans-serif" font-size="24" font-weight="700">
    Revis&#227;o segura
  </text>

  <rect x="652" y="447" width="214" height="46" rx="23" fill="#0ea5e9" fill-opacity="0.14" stroke="#38bdf8" stroke-opacity="0.55"/>
  <text x="692" y="478" fill="#7dd3fc" font-family="Segoe UI, Arial, sans-serif" font-size="24" font-weight="700">
    Suporte SESAM
  </text>
</svg>
